<?xml version="1.0" encoding="UTF-8" standalone="no"?>
<!DOCTYPE svg PUBLIC "-//W3C//DTD SVG 1.1//EN" "http://www.w3.org/Graphics/SVG/1.1/DTD/svg11.dtd">
<svg version="1.1" xmlns="http://www.w3.org/2000/svg" xmlns:xlink="http://www.w3.org/1999/xlink" preserveAspectRatio="xMidYMid meet" viewBox="0.9093114995123339 -1.0000000000000004 152.09068850048766 61.08682310158013" width="148.09" height="57.09"><defs><path d="M103.8 18.49L113.01 21.85L113.01 32.67L103.8 29.32L103.8 18.49Z" id="bxztSLu41"></path><path d="M94.46 21.9L94.46 32.72L103.8 29.32L103.8 18.49L94.46 21.9Z" id="i2baQMoWOL"></path><path d="M94.46 32.72L103.66 36.07L113.01 32.67L103.8 29.32L94.46 32.72Z" id="c1FTmFxzHg"></path><path d="M94.46 21.9L103.66 25.25L113.01 21.85L103.8 18.49L94.46 21.9Z" id="aJqNH87m9"></path><path d="M103.66 25.25L103.66 36.07L113.01 32.67L113.01 21.85L103.66 25.25Z" id="c2yBAJqqcw"></path><path d="M94.46 21.9L103.66 25.25L103.66 36.07L94.46 32.72L94.46 21.9Z" id="gcos81Isw"></path><path d="M113.05 10.93L122.26 14.28L122.26 25.1L113.05 21.75L113.05 10.93Z" id="c9Un2H831"></path><path d="M103.71 14.33L103.71 25.15L113.05 21.75L113.05 10.93L103.71 14.33Z" id="b3xpHy4iQ0"></path><path d="M103.71 25.15L112.91 28.5L122.26 25.1L113.05 21.75L103.71 25.15Z" id="bgQrqhCYC"></path><path d="M103.71 14.33L112.91 17.68L122.26 14.28L113.05 10.93L103.71 14.33Z" id="b45AB8FC5s"></path><path d="M112.91 17.68L112.91 28.5L122.26 25.1L122.26 14.28L112.91 17.68Z" id="b1v3wvyU1u"></path><path d="M103.71 14.33L112.91 17.68L112.91 28.5L103.71 25.15L103.71 14.33Z" id="e5htyVRW7"></path><path d="M94.55 32.79L103.76 36.14L103.76 46.96L94.55 43.61L94.55 32.79Z" id="bYOwHQnII"></path><path d="M85.21 36.19L85.21 47.01L94.55 43.61L94.55 32.79L85.21 36.19Z" id="aiBYvUUqn"></path><path d="M85.21 47.01L94.42 50.36L103.76 46.96L94.55 43.61L85.21 47.01Z" id="b11BzZxShs"></path><path d="M85.21 36.19L94.42 39.54L103.76 36.14L94.55 32.79L85.21 36.19Z" id="aEhr3Qm6i"></path><path d="M94.42 39.54L94.42 50.36L103.76 46.96L103.76 36.14L94.42 39.54Z" id="egUYSyFAV"></path><path d="M85.21 36.19L94.42 39.54L94.42 50.36L85.21 47.01L85.21 36.19Z" id="d53QOyAeJ"></path><path d="M103.8 36.15L113.01 39.5L113.01 50.32L103.8 46.97L103.8 36.15Z" id="b447cLsR7x"></path><path d="M94.46 39.55L94.46 50.37L103.8 46.97L103.8 36.15L94.46 39.55Z" id="a8HeMIzX6y"></path><path d="M94.46 50.37L103.66 53.72L113.01 50.32L103.8 46.97L94.46 50.37Z" id="bf8RKmwwG"></path><path d="M94.46 39.55L103.66 42.9L113.01 39.5L103.8 36.15L94.46 39.55Z" id="b1ekNo8p9z"></path><path d="M103.66 42.9L103.66 53.72L113.01 50.32L113.01 39.5L103.66 42.9Z" id="gJ1zr3ZKs"></path><path d="M94.46 39.55L103.66 42.9L103.66 53.72L94.46 50.37L94.46 39.55Z" id="e1IFktXCRP"></path><path d="M103.8 25.22L113.01 28.57L113.01 39.39L103.8 36.04L103.8 25.22Z" id="c3r9QmOFT"></path><path d="M94.46 28.62L94.46 39.44L103.8 36.04L103.8 25.22L94.46 28.62Z" id="a7pTo37blu"></path><path d="M94.46 39.44L103.66 42.8L113.01 39.39L103.8 36.04L94.46 39.44Z" id="c1fhgRiSSm"></path><path d="M94.46 28.62L103.66 31.97L113.01 28.57L103.8 25.22L94.46 28.62Z" id="a14K1LATth"></path><path d="M103.66 31.97L103.66 42.8L113.01 39.39L113.01 28.57L103.66 31.97Z" id="b11BSPPZZJ"></path><path d="M94.46 28.62L103.66 31.97L103.66 42.8L94.46 39.44L94.46 28.62Z" id="g2L80dm1e"></path><path d="M140.79 29.42L150 32.78L150 43.6L140.79 40.25L140.79 29.42Z" id="dBr7IFwss"></path><path d="M131.45 32.82L131.45 43.65L140.79 40.25L140.79 29.42L131.45 32.82Z" id="a6xppHoSSr"></path><path d="M131.45 43.65L140.66 47L150 43.6L140.79 40.25L131.45 43.65Z" id="aaUkx5xAs"></path><path d="M131.45 32.82L140.66 36.18L150 32.78L140.79 29.42L131.45 32.82Z" id="b2uOHhAMkN"></path><path d="M140.66 36.18L140.66 47L150 43.6L150 32.78L140.66 36.18Z" id="a80MtQRbo"></path><path d="M131.45 32.82L140.66 36.18L140.66 47L131.45 43.65L131.45 32.82Z" id="cVFpZjQe4"></path><path d="M131.54 32.79L140.75 36.14L140.75 46.96L131.54 43.61L131.54 32.79Z" id="bzwGZY064"></path><path d="M122.2 36.19L122.2 47.01L131.54 43.61L131.54 32.79L122.2 36.19Z" id="a9cSBVQ0x"></path><path d="M122.2 47.01L131.4 50.36L140.75 46.96L131.54 43.61L122.2 47.01Z" id="aOcjbLWhU"></path><path d="M122.2 36.19L131.4 39.54L140.75 36.14L131.54 32.79L122.2 36.19Z" id="a4ckuYgG3n"></path><path d="M131.4 39.54L131.4 50.36L140.75 46.96L140.75 36.14L131.4 39.54Z" id="a1su9lF9r2"></path><path d="M122.2 36.19L131.4 39.54L131.4 50.36L122.2 47.01L122.2 36.19Z" id="a4wPJyxm0a"></path><path d="M137.27 40.92C136.28 41.28 135.48 42.42 135.48 43.48C135.48 44.53 136.28 45.1 137.27 44.74C138.27 44.37 139.07 43.23 139.07 42.17C139.07 41.12 138.27 40.55 137.27 40.92Z" id="a3taDziPnY"></path><path d="M122.3 36.15L131.5 39.5L131.5 50.32L122.3 46.97L122.3 36.15Z" id="i2xG2NRxNJ"></path><path d="M112.95 39.55L112.95 50.37L122.3 46.97L122.3 36.15L112.95 39.55Z" id="b2HqzjGobU"></path><path d="M112.95 50.37L122.16 53.72L131.5 50.32L122.3 46.97L112.95 50.37Z" id="lzFPIN4Wu"></path><path d="M112.95 39.55L122.16 42.9L131.5 39.5L122.3 36.15L112.95 39.55Z" id="i1hQrbQLA8"></path><path d="M122.16 42.9L122.16 53.72L131.5 50.32L131.5 39.5L122.16 42.9Z" id="c8C6Nwa05"></path><path d="M112.95 39.55L122.16 42.9L122.16 53.72L112.95 50.37L112.95 39.55Z" id="b3bQqIIZQ"></path><path d="M113.05 39.51L122.26 42.86L122.26 53.69L113.05 50.34L113.05 39.51Z" id="b1uUr4Tk4o"></path><path d="M103.71 42.91L103.71 53.74L113.05 50.34L113.05 39.51L103.71 42.91Z" id="c6ytuam9YD"></path><path d="M103.71 53.74L112.91 57.09L122.26 53.69L113.05 50.34L103.71 53.74Z" id="a1g0IpK0VS"></path><path d="M103.71 42.91L112.91 46.27L122.26 42.86L113.05 39.51L103.71 42.91Z" id="e3PUQ0JV9E"></path><path d="M112.91 46.27L112.91 57.09L122.26 53.69L122.26 42.86L112.91 46.27Z" id="b8fL7FYF5B"></path><path d="M103.71 42.91L112.91 46.27L112.91 57.09L103.71 53.74L103.71 42.91Z" id="b4MxWfpRo0"></path><path d="M140.79 18.49L150 21.85L150 32.67L140.79 29.32L140.79 18.49Z" id="g1LUY7JRyP"></path><path d="M131.45 21.9L131.45 32.72L140.79 29.32L140.79 18.49L131.45 21.9Z" id="f3wgFVcxbk"></path><path d="M131.45 32.72L140.66 36.07L150 32.67L140.79 29.32L131.45 32.72Z" id="g31pCDx8Fb"></path><path d="M131.45 21.9L140.66 25.25L150 21.85L140.79 18.49L131.45 21.9Z" id="l3cKpl1jDJ"></path><path d="M140.66 25.25L140.66 36.07L150 32.67L150 21.85L140.66 25.25Z" id="e2eOBkUfOY"></path><path d="M131.45 21.9L140.66 25.25L140.66 36.07L131.45 32.72L131.45 21.9Z" id="c1858zWgli"></path><path d="M140.79 7.57L150 10.92L150 21.74L140.79 18.39L140.79 7.57Z" id="c59LrpwHq9"></path><path d="M131.45 10.97L131.45 21.79L140.79 18.39L140.79 7.57L131.45 10.97Z" id="a22XMGxdWK"></path><path d="M131.45 21.79L140.66 25.14L150 21.74L140.79 18.39L131.45 21.79Z" id="bQTPYxUk"></path><path d="M131.45 10.97L140.66 14.32L150 10.92L140.79 7.57L131.45 10.97Z" id="a546HrWvfF"></path><path d="M140.66 14.32L140.66 25.14L150 21.74L150 10.92L140.66 14.32Z" id="aBoOeeYfc"></path><path d="M131.45 10.97L140.66 14.32L140.66 25.14L131.45 21.79L131.45 10.97Z" id="b8svQhdG1"></path><path d="M131.54 21.86L140.75 25.21L140.75 36.03L131.54 32.68L131.54 21.86Z" id="b3zQhJRszO"></path><path d="M122.2 25.26L122.2 36.08L131.54 32.68L131.54 21.86L122.2 25.26Z" id="bwAFhWrsK"></path><path d="M122.2 36.08L131.41 39.43L140.75 36.03L131.54 32.68L122.2 36.08Z" id="dPewDEcO6"></path><path d="M122.2 25.26L131.41 28.61L140.75 25.21L131.54 21.86L122.2 25.26Z" id="b7YvfE0V"></path><path d="M131.41 28.61L131.41 39.43L140.75 36.03L140.75 25.21L131.41 28.61Z" id="dikXtVIEK"></path><path d="M122.2 25.26L131.41 28.61L131.41 39.43L122.2 36.08L122.2 25.26Z" id="esoV5AcQs"></path><path d="M131.54 10.93L140.75 14.28L140.75 25.1L131.54 21.75L131.54 10.93Z" id="d1mHqH49yK"></path><path d="M122.2 14.33L122.2 25.15L131.54 21.75L131.54 10.93L122.2 14.33Z" id="bf7rBjNQ1"></path><path d="M122.2 25.15L131.41 28.5L140.75 25.1L131.54 21.75L122.2 25.15Z" id="c2ItBDIaa"></path><path d="M122.2 14.33L131.41 17.68L140.75 14.28L131.54 10.93L122.2 14.33Z" id="d48J8gZlvM"></path><path d="M131.41 17.68L131.41 28.5L140.75 25.1L140.75 14.28L131.41 17.68Z" id="c53RwsxMoE"></path><path d="M122.2 14.33L131.41 17.68L131.41 28.5L122.2 25.15L122.2 14.33Z" id="d7w3yIw8t"></path><path d="M131.54 0L140.75 3.35L140.75 14.17L131.54 10.82L131.54 0Z" id="b4H7jgBSY"></path><path d="M122.2 3.4L122.2 14.22L131.54 10.82L131.54 0L122.2 3.4Z" id="e6Y9Q7mBP"></path><path d="M122.2 14.22L131.41 17.57L140.75 14.17L131.54 10.82L122.2 14.22Z" id="a2ZVv3kjNR"></path><path d="M122.2 3.4L131.41 6.75L140.75 3.35L131.54 0L122.2 3.4Z" id="a3HG6zs2Lt"></path><path d="M131.41 6.75L131.41 17.57L140.75 14.17L140.75 3.35L131.41 6.75Z" id="e22pEPYkkv"></path><path d="M122.2 3.4L131.41 6.75L131.41 17.57L122.2 14.22L122.2 3.4Z" id="auJ5dS584"></path><path d="M122.3 25.22L131.5 28.57L131.5 39.39L122.3 36.04L122.3 25.22Z" id="a1ejc7xntC"></path><path d="M112.95 28.62L112.95 39.44L122.3 36.04L122.3 25.22L112.95 28.62Z" id="d14MPCzVG8"></path><path d="M112.95 39.44L122.16 42.8L131.5 39.39L122.3 36.04L112.95 39.44Z" id="b8yTirvEbp"></path><path d="M112.95 28.62L122.16 31.97L131.5 28.57L122.3 25.22L112.95 28.62Z" id="dqUSoVy6m"></path><path d="M122.16 31.97L122.16 42.8L131.5 39.39L131.5 28.57L122.16 31.97Z" id="ccCu9HRRc"></path><path d="M112.95 28.62L122.16 31.97L122.16 42.8L112.95 39.44L112.95 28.62Z" id="d1oMLvqlMa"></path><path d="M122.3 14.29L131.5 17.64L131.5 28.46L122.3 25.11L122.3 14.29Z" id="f4B4wdzVPW"></path><path d="M112.95 17.69L112.95 28.51L122.3 25.11L122.3 14.29L112.95 17.69Z" id="b2NTKIqTr3"></path><path d="M112.95 28.51L122.16 31.87L131.5 28.47L122.3 25.11L112.95 28.51Z" id="a2hJfL7XQL"></path><path d="M112.95 17.69L122.16 21.04L131.5 17.64L122.3 14.29L112.95 17.69Z" id="h15owyxgf"></path><path d="M122.16 21.04L122.16 31.87L131.5 28.47L131.5 17.64L122.16 21.04Z" id="c1ATowBNXf"></path><path d="M112.95 17.69L122.16 21.04L122.16 31.87L112.95 28.51L112.95 17.69Z" id="a1gHhHTPqM"></path><path d="M113.05 28.58L122.26 31.94L122.26 42.76L113.05 39.41L113.05 28.58Z" id="b4aHxqsfsD"></path><path d="M103.71 31.98L103.71 42.81L113.05 39.41L113.05 28.58L103.71 31.98Z" id="b1ex74BiZA"></path><path d="M103.71 42.81L112.91 46.16L122.26 42.76L113.05 39.41L103.71 42.81Z" id="c1oGzjgTL"></path><path d="M103.71 31.98L112.91 35.34L122.26 31.94L113.05 28.58L103.71 31.98Z" id="b2FscCMfyX"></path><path d="M112.91 35.34L112.91 46.16L122.26 42.76L122.26 31.94L112.91 35.34Z" id="b9vjuOPjUZ"></path><path d="M103.71 31.98L112.91 35.34L112.91 46.16L103.71 42.81L103.71 31.98Z" id="d2WoiSbuhJ"></path><path d="M113.05 17.65L122.26 21.01L122.26 31.83L113.05 28.48L113.05 17.65Z" id="a11kw2OA4H"></path><path d="M103.71 21.06L103.71 31.88L113.05 28.48L113.05 17.65L103.71 21.06Z" id="b22pLkpQtR"></path><path d="M103.71 31.88L112.91 35.23L122.26 31.83L113.05 28.48L103.71 31.88Z" id="c5RnTWJxG"></path><path d="M103.71 21.06L112.91 24.41L122.26 21.01L113.05 17.65L103.71 21.06Z" id="c56Vq8Huz"></path><path d="M112.91 24.41L112.91 35.23L122.26 31.83L122.26 21.01L112.91 24.41Z" id="ce9QXfSrY"></path><path d="M103.71 21.06L112.91 24.41L112.91 35.23L103.71 31.88L103.71 21.06Z" id="a54V86mD43"></path><path d="M122.29 3.36L131.5 6.71L131.5 17.53L122.29 14.18L122.29 3.36Z" id="b1RuyC6vLx"></path><path d="M112.95 6.76L112.95 17.58L122.29 14.18L122.29 3.36L112.95 6.76Z" id="bcuw8VVPF"></path><path d="M112.95 17.58L122.16 20.94L131.5 17.53L122.29 14.18L112.95 17.58Z" id="aetKWKV2q"></path><path d="M112.95 6.76L122.16 10.11L131.5 6.71L122.29 3.36L112.95 6.76Z" id="a1pYIkYwuv"></path><path d="M122.16 10.11L122.16 20.94L131.5 17.53L131.5 6.71L122.16 10.11Z" id="bbxNFSKOD"></path><path d="M112.95 6.76L122.16 10.11L122.16 20.94L112.95 17.58L112.95 6.76Z" id="e11qnXfNpR"></path><path d="M125.66 12.33C124.67 12.69 123.86 13.84 123.86 14.89C123.86 15.95 124.67 16.51 125.66 16.15C126.65 15.79 127.45 14.64 127.45 13.58C127.45 12.53 126.65 11.97 125.66 12.33Z" id="az5mZ47KE"></path><path d="M15.88 34.2C15.88 34.93 15.3 35.52 14.57 35.52C14.57 35.52 14.57 35.52 14.57 35.52L4.81 35.52L1.91 41C11.55 41 16.9 41 17.97 41C20.52 41 22.8 38.33 22.8 35.88C22.8 34.82 22.8 29.54 22.8 20.04L15.89 20.04L15.88 34.2" id="fIfAW7hR"></path><path d="M51.84 20L58.34 20C58.36 28.84 58.36 33.76 58.36 34.74C58.34 35.24 58.59 35.49 59.1 35.47C59.1 35.47 69.72 35.45 69.75 35.45C69.94 35.81 70.88 37.65 72.58 40.96C62.51 40.97 56.92 40.98 55.8 40.98C53.62 40.96 51.84 39.32 51.82 36.7C51.82 35.59 51.83 30.02 51.84 20" id="b1hUvhjwtK"></path><path d="M24.69 20.04L24.69 41L31.7 41C31.7 32.13 31.69 27.21 31.69 26.22C31.7 25.65 31.99 25.33 32.56 25.32C33.48 25.32 40.8 25.33 41.72 25.33C42.86 25.33 43.68 26.44 43.68 27.98C43.68 29.48 42.86 30.34 41.72 30.34C41.05 30.34 37.72 30.34 31.74 30.34L34.85 35.81C40.38 35.82 43.46 35.82 44.08 35.82C47.22 35.81 50.44 33.92 50.42 28.4C50.4 22.72 47.08 20.04 44.22 20.02C42.92 20.02 36.41 20.03 24.69 20.04" id="a22JjeVdyP"></path></defs><g><g><use xlink:href="#bxztSLu41" opacity="1" fill="#e9e9ff" fill-opacity="1"></use><g><use xlink:href="#bxztSLu41" opacity="1" fill-opacity="0" stroke="#cccccc" stroke-width="0.21" stroke-opacity="1"></use></g></g><g><use xlink:href="#i2baQMoWOL" opacity="1" fill="#353564" fill-opacity="1"></use><g><use xlink:href="#i2baQMoWOL" opacity="1" fill-opacity="0" stroke="#cccccc" stroke-width="0.21" stroke-opacity="1"></use></g></g><g><use xlink:href="#c1FTmFxzHg" opacity="1" fill="#afafde" fill-opacity="1"></use><g><use xlink:href="#c1FTmFxzHg" opacity="1" fill-opacity="0" stroke="#cccccc" stroke-width="0.21" stroke-opacity="1"></use></g></g><g><use xlink:href="#aJqNH87m9" opacity="1" fill="#f7f7f4" fill-opacity="1"></use><g><use xlink:href="#aJqNH87m9" opacity="1" fill-opacity="0" stroke="#cccccc" stroke-width="0.21" stroke-opacity="1"></use></g></g><g><use xlink:href="#c2yBAJqqcw" opacity="1" fill="#ffffff" fill-opacity="1"></use><g><use xlink:href="#c2yBAJqqcw" opacity="1" fill-opacity="0" stroke="#cccccc" stroke-width="0.21" stroke-opacity="1"></use></g></g><g><use xlink:href="#gcos81Isw" opacity="1" fill="#efeeea" fill-opacity="1"></use><g><use xlink:href="#gcos81Isw" opacity="1" fill-opacity="0" stroke="#cccccc" stroke-width="0.21" stroke-opacity="1"></use></g></g><g><use xlink:href="#c9Un2H831" opacity="1" fill="#e9e9ff" fill-opacity="1"></use><g><use xlink:href="#c9Un2H831" opacity="1" fill-opacity="0" stroke="#cccccc" stroke-width="0.21" stroke-opacity="1"></use></g></g><g><use xlink:href="#b3xpHy4iQ0" opacity="1" fill="#353564" fill-opacity="1"></use><g><use xlink:href="#b3xpHy4iQ0" opacity="1" fill-opacity="0" stroke="#cccccc" stroke-width="0.21" stroke-opacity="1"></use></g></g><g><use xlink:href="#bgQrqhCYC" opacity="1" fill="#afafde" fill-opacity="1"></use><g><use xlink:href="#bgQrqhCYC" opacity="1" fill-opacity="0" stroke="#cccccc" stroke-width="0.21" stroke-opacity="1"></use></g></g><g><use xlink:href="#b45AB8FC5s" opacity="1" fill="#f7f7f4" fill-opacity="1"></use><g><use xlink:href="#b45AB8FC5s" opacity="1" fill-opacity="0" stroke="#cccccc" stroke-width="0.21" stroke-opacity="1"></use></g></g><g><use xlink:href="#b1v3wvyU1u" opacity="1" fill="#ffffff" fill-opacity="1"></use><g><use xlink:href="#b1v3wvyU1u" opacity="1" fill-opacity="0" stroke="#cccccc" stroke-width="0.21" stroke-opacity="1"></use></g></g><g><use xlink:href="#e5htyVRW7" opacity="1" fill="#efeeea" fill-opacity="1"></use><g><use xlink:href="#e5htyVRW7" opacity="1" fill-opacity="0" stroke="#cccccc" stroke-width="0.21" stroke-opacity="1"></use></g></g><g><use xlink:href="#bYOwHQnII" opacity="1" fill="#e9e9ff" fill-opacity="1"></use><g><use xlink:href="#bYOwHQnII" opacity="1" fill-opacity="0" stroke="#cccccc" stroke-width="0.21" stroke-opacity="1"></use></g></g><g><use xlink:href="#aiBYvUUqn" opacity="1" fill="#353564" fill-opacity="1"></use><g><use xlink:href="#aiBYvUUqn" opacity="1" fill-opacity="0" stroke="#cccccc" stroke-width="0.21" stroke-opacity="1"></use></g></g><g><use xlink:href="#b11BzZxShs" opacity="1" fill="#afafde" fill-opacity="1"></use><g><use xlink:href="#b11BzZxShs" opacity="1" fill-opacity="0" stroke="#cccccc" stroke-width="0.21" stroke-opacity="1"></use></g></g><g><use xlink:href="#aEhr3Qm6i" opacity="1" fill="#f7f7f4" fill-opacity="1"></use><g><use xlink:href="#aEhr3Qm6i" opacity="1" fill-opacity="0" stroke="#cccccc" stroke-width="0.21" stroke-opacity="1"></use></g></g><g><use xlink:href="#egUYSyFAV" opacity="1" fill="#ffffff" fill-opacity="1"></use><g><use xlink:href="#egUYSyFAV" opacity="1" fill-opacity="0" stroke="#cccccc" stroke-width="0.21" stroke-opacity="1"></use></g></g><g><use xlink:href="#d53QOyAeJ" opacity="1" fill="#efeeea" fill-opacity="1"></use><g><use xlink:href="#d53QOyAeJ" opacity="1" fill-opacity="0" stroke="#cccccc" stroke-width="0.21" stroke-opacity="1"></use></g></g><g><use xlink:href="#b447cLsR7x" opacity="1" fill="#e9e9ff" fill-opacity="1"></use><g><use xlink:href="#b447cLsR7x" opacity="1" fill-opacity="0" stroke="#cccccc" stroke-width="0.21" stroke-opacity="1"></use></g></g><g><use xlink:href="#a8HeMIzX6y" opacity="1" fill="#353564" fill-opacity="1"></use><g><use xlink:href="#a8HeMIzX6y" opacity="1" fill-opacity="0" stroke="#cccccc" stroke-width="0.21" stroke-opacity="1"></use></g></g><g><use xlink:href="#bf8RKmwwG" opacity="1" fill="#afafde" fill-opacity="1"></use><g><use xlink:href="#bf8RKmwwG" opacity="1" fill-opacity="0" stroke="#cccccc" stroke-width="0.21" stroke-opacity="1"></use></g></g><g><use xlink:href="#b1ekNo8p9z" opacity="1" fill="#f7f7f4" fill-opacity="1"></use><g><use xlink:href="#b1ekNo8p9z" opacity="1" fill-opacity="0" stroke="#cccccc" stroke-width="0.21" stroke-opacity="1"></use></g></g><g><use xlink:href="#gJ1zr3ZKs" opacity="1" fill="#ffffff" fill-opacity="1"></use><g><use xlink:href="#gJ1zr3ZKs" opacity="1" fill-opacity="0" stroke="#cccccc" stroke-width="0.21" stroke-opacity="1"></use></g></g><g><use xlink:href="#e1IFktXCRP" opacity="1" fill="#efeeea" fill-opacity="1"></use><g><use xlink:href="#e1IFktXCRP" opacity="1" fill-opacity="0" stroke="#cccccc" stroke-width="0.21" stroke-opacity="1"></use></g></g><g><use xlink:href="#c3r9QmOFT" opacity="1" fill="#e9e9ff" fill-opacity="1"></use><g><use xlink:href="#c3r9QmOFT" opacity="1" fill-opacity="0" stroke="#cccccc" stroke-width="0.21" stroke-opacity="1"></use></g></g><g><use xlink:href="#a7pTo37blu" opacity="1" fill="#353564" fill-opacity="1"></use><g><use xlink:href="#a7pTo37blu" opacity="1" fill-opacity="0" stroke="#cccccc" stroke-width="0.21" stroke-opacity="1"></use></g></g><g><use xlink:href="#c1fhgRiSSm" opacity="1" fill="#afafde" fill-opacity="1"></use><g><use xlink:href="#c1fhgRiSSm" opacity="1" fill-opacity="0" stroke="#cccccc" stroke-width="0.21" stroke-opacity="1"></use></g></g><g><use xlink:href="#a14K1LATth" opacity="1" fill="#f7f7f4" fill-opacity="1"></use><g><use xlink:href="#a14K1LATth" opacity="1" fill-opacity="0" stroke="#cccccc" stroke-width="0.21" stroke-opacity="1"></use></g></g><g><use xlink:href="#b11BSPPZZJ" opacity="1" fill="#ffffff" fill-opacity="1"></use><g><use xlink:href="#b11BSPPZZJ" opacity="1" fill-opacity="0" stroke="#cccccc" stroke-width="0.21" stroke-opacity="1"></use></g></g><g><use xlink:href="#g2L80dm1e" opacity="1" fill="#efeeea" fill-opacity="1"></use><g><use xlink:href="#g2L80dm1e" opacity="1" fill-opacity="0" stroke="#cccccc" stroke-width="0.21" stroke-opacity="1"></use></g></g><g><use xlink:href="#dBr7IFwss" opacity="1" fill="#e9e9ff" fill-opacity="1"></use><g><use xlink:href="#dBr7IFwss" opacity="1" fill-opacity="0" stroke="#cccccc" stroke-width="0.21" stroke-opacity="1"></use></g></g><g><use xlink:href="#a6xppHoSSr" opacity="1" fill="#353564" fill-opacity="1"></use><g><use xlink:href="#a6xppHoSSr" opacity="1" fill-opacity="0" stroke="#cccccc" stroke-width="0.21" stroke-opacity="1"></use></g></g><g><use xlink:href="#aaUkx5xAs" opacity="1" fill="#afafde" fill-opacity="1"></use><g><use xlink:href="#aaUkx5xAs" opacity="1" fill-opacity="0" stroke="#cccccc" stroke-width="0.21" stroke-opacity="1"></use></g></g><g><use xlink:href="#b2uOHhAMkN" opacity="1" fill="#f7f7f4" fill-opacity="1"></use><g><use xlink:href="#b2uOHhAMkN" opacity="1" fill-opacity="0" stroke="#cccccc" stroke-width="0.21" stroke-opacity="1"></use></g></g><g><use xlink:href="#a80MtQRbo" opacity="1" fill="#ffffff" fill-opacity="1"></use><g><use xlink:href="#a80MtQRbo" opacity="1" fill-opacity="0" stroke="#cccccc" stroke-width="0.21" stroke-opacity="1"></use></g></g><g><use xlink:href="#cVFpZjQe4" opacity="1" fill="#efeeea" fill-opacity="1"></use><g><use xlink:href="#cVFpZjQe4" opacity="1" fill-opacity="0" stroke="#cccccc" stroke-width="0.21" stroke-opacity="1"></use></g></g><g><use xlink:href="#bzwGZY064" opacity="1" fill="#e9e9ff" fill-opacity="1"></use><g><use xlink:href="#bzwGZY064" opacity="1" fill-opacity="0" stroke="#cccccc" stroke-width="0.33" stroke-opacity="1"></use></g></g><g><use xlink:href="#a9cSBVQ0x" opacity="1" fill="#353564" fill-opacity="1"></use><g><use xlink:href="#a9cSBVQ0x" opacity="1" fill-opacity="0" stroke="#cccccc" stroke-width="0.33" stroke-opacity="1"></use></g></g><g><use xlink:href="#aOcjbLWhU" opacity="1" fill="#afafde" fill-opacity="1"></use><g><use xlink:href="#aOcjbLWhU" opacity="1" fill-opacity="0" stroke="#cccccc" stroke-width="0.33" stroke-opacity="1"></use></g></g><g><use xlink:href="#a4ckuYgG3n" opacity="1" fill="#f7f7f4" fill-opacity="1"></use><g><use xlink:href="#a4ckuYgG3n" opacity="1" fill-opacity="0" stroke="#cccccc" stroke-width="0.33" stroke-opacity="1"></use></g></g><g><use xlink:href="#a1su9lF9r2" opacity="1" fill="#ffd242" fill-opacity="1"></use><g><use xlink:href="#a1su9lF9r2" opacity="1" fill-opacity="0" stroke="#cccccc" stroke-width="0.33" stroke-opacity="1"></use></g></g><g><use xlink:href="#a4wPJyxm0a" opacity="1" fill="#efeeea" fill-opacity="1"></use><g><use xlink:href="#a4wPJyxm0a" opacity="1" fill-opacity="0" stroke="#cccccc" stroke-width="0.33" stroke-opacity="1"></use></g></g><g><use xlink:href="#a3taDziPnY" opacity="1" fill="#ffffff" fill-opacity="1"></use><g><use xlink:href="#a3taDziPnY" opacity="1" fill-opacity="0" stroke="#000000" stroke-width="1" stroke-opacity="0"></use></g></g><g><use xlink:href="#i2xG2NRxNJ" opacity="1" fill="#e9e9ff" fill-opacity="1"></use><g><use xlink:href="#i2xG2NRxNJ" opacity="1" fill-opacity="0" stroke="#cccccc" stroke-width="0.21" stroke-opacity="1"></use></g></g><g><use xlink:href="#b2HqzjGobU" opacity="1" fill="#353564" fill-opacity="1"></use><g><use xlink:href="#b2HqzjGobU" opacity="1" fill-opacity="0" stroke="#cccccc" stroke-width="0.21" stroke-opacity="1"></use></g></g><g><use xlink:href="#lzFPIN4Wu" opacity="1" fill="#afafde" fill-opacity="1"></use><g><use xlink:href="#lzFPIN4Wu" opacity="1" fill-opacity="0" stroke="#cccccc" stroke-width="0.21" stroke-opacity="1"></use></g></g><g><use xlink:href="#i1hQrbQLA8" opacity="1" fill="#f7f7f4" fill-opacity="1"></use><g><use xlink:href="#i1hQrbQLA8" opacity="1" fill-opacity="0" stroke="#cccccc" stroke-width="0.21" stroke-opacity="1"></use></g></g><g><use xlink:href="#c8C6Nwa05" opacity="1" fill="#ffd242" fill-opacity="1"></use><g><use xlink:href="#c8C6Nwa05" opacity="1" fill-opacity="0" stroke="#cccccc" stroke-width="0.21" stroke-opacity="1"></use></g></g><g><use xlink:href="#b3bQqIIZQ" opacity="1" fill="#efeeea" fill-opacity="1"></use><g><use xlink:href="#b3bQqIIZQ" opacity="1" fill-opacity="0" stroke="#cccccc" stroke-width="0.21" stroke-opacity="1"></use></g></g><g><use xlink:href="#b1uUr4Tk4o" opacity="1" fill="#e9e9ff" fill-opacity="1"></use><g><use xlink:href="#b1uUr4Tk4o" opacity="1" fill-opacity="0" stroke="#cccccc" stroke-width="0.21" stroke-opacity="1"></use></g></g><g><use xlink:href="#c6ytuam9YD" opacity="1" fill="#353564" fill-opacity="1"></use><g><use xlink:href="#c6ytuam9YD" opacity="1" fill-opacity="0" stroke="#cccccc" stroke-width="0.21" stroke-opacity="1"></use></g></g><g><use xlink:href="#a1g0IpK0VS" opacity="1" fill="#afafde" fill-opacity="1"></use><g><use xlink:href="#a1g0IpK0VS" opacity="1" fill-opacity="0" stroke="#cccccc" stroke-width="0.21" stroke-opacity="1"></use></g></g><g><use xlink:href="#e3PUQ0JV9E" opacity="1" fill="#f7f7f4" fill-opacity="1"></use><g><use xlink:href="#e3PUQ0JV9E" opacity="1" fill-opacity="0" stroke="#cccccc" stroke-width="0.21" stroke-opacity="1"></use></g></g><g><use xlink:href="#b8fL7FYF5B" opacity="1" fill="#ffffff" fill-opacity="1"></use><g><use xlink:href="#b8fL7FYF5B" opacity="1" fill-opacity="0" stroke="#cccccc" stroke-width="0.21" stroke-opacity="1"></use></g></g><g><use xlink:href="#b4MxWfpRo0" opacity="1" fill="#efeeea" fill-opacity="1"></use><g><use xlink:href="#b4MxWfpRo0" opacity="1" fill-opacity="0" stroke="#cccccc" stroke-width="0.21" stroke-opacity="1"></use></g></g><g><use xlink:href="#g1LUY7JRyP" opacity="1" fill="#e9e9ff" fill-opacity="1"></use><g><use xlink:href="#g1LUY7JRyP" opacity="1" fill-opacity="0" stroke="#cccccc" stroke-width="0.21" stroke-opacity="1"></use></g></g><g><use xlink:href="#f3wgFVcxbk" opacity="1" fill="#353564" fill-opacity="1"></use><g><use xlink:href="#f3wgFVcxbk" opacity="1" fill-opacity="0" stroke="#cccccc" stroke-width="0.21" stroke-opacity="1"></use></g></g><g><use xlink:href="#g31pCDx8Fb" opacity="1" fill="#afafde" fill-opacity="1"></use><g><use xlink:href="#g31pCDx8Fb" opacity="1" fill-opacity="0" stroke="#cccccc" stroke-width="0.21" stroke-opacity="1"></use></g></g><g><use xlink:href="#l3cKpl1jDJ" opacity="1" fill="#f7f7f4" fill-opacity="1"></use><g><use xlink:href="#l3cKpl1jDJ" opacity="1" fill-opacity="0" stroke="#cccccc" stroke-width="0.21" stroke-opacity="1"></use></g></g><g><use xlink:href="#e2eOBkUfOY" opacity="1" fill="#ffd242" fill-opacity="1"></use><g><use xlink:href="#e2eOBkUfOY" opacity="1" fill-opacity="0" stroke="#cccccc" stroke-width="0.21" stroke-opacity="1"></use></g></g><g><use xlink:href="#c1858zWgli" opacity="1" fill="#efeeea" fill-opacity="1"></use><g><use xlink:href="#c1858zWgli" opacity="1" fill-opacity="0" stroke="#cccccc" stroke-width="0.21" stroke-opacity="1"></use></g></g><g><use xlink:href="#c59LrpwHq9" opacity="1" fill="#e9e9ff" fill-opacity="1"></use><g><use xlink:href="#c59LrpwHq9" opacity="1" fill-opacity="0" stroke="#cccccc" stroke-width="0.21" stroke-opacity="1"></use></g></g><g><use xlink:href="#a22XMGxdWK" opacity="1" fill="#353564" fill-opacity="1"></use><g><use xlink:href="#a22XMGxdWK" opacity="1" fill-opacity="0" stroke="#cccccc" stroke-width="0.21" stroke-opacity="1"></use></g></g><g><use xlink:href="#bQTPYxUk" opacity="1" fill="#afafde" fill-opacity="1"></use><g><use xlink:href="#bQTPYxUk" opacity="1" fill-opacity="0" stroke="#cccccc" stroke-width="0.21" stroke-opacity="1"></use></g></g><g><use xlink:href="#a546HrWvfF" opacity="1" fill="#ffc91d" fill-opacity="1"></use><g><use xlink:href="#a546HrWvfF" opacity="1" fill-opacity="0" stroke="#cccccc" stroke-width="0.21" stroke-opacity="1"></use></g></g><g><use xlink:href="#aBoOeeYfc" opacity="1" fill="#ffd242" fill-opacity="1"></use><g><use xlink:href="#aBoOeeYfc" opacity="1" fill-opacity="0" stroke="#cccccc" stroke-width="0.21" stroke-opacity="1"></use></g></g><g><use xlink:href="#b8svQhdG1" opacity="1" fill="#efeeea" fill-opacity="1"></use><g><use xlink:href="#b8svQhdG1" opacity="1" fill-opacity="0" stroke="#cccccc" stroke-width="0.21" stroke-opacity="1"></use></g></g><g><use xlink:href="#b3zQhJRszO" opacity="1" fill="#e9e9ff" fill-opacity="1"></use><g><use xlink:href="#b3zQhJRszO" opacity="1" fill-opacity="0" stroke="#cccccc" stroke-width="0.21" stroke-opacity="1"></use></g></g><g><use xlink:href="#bwAFhWrsK" opacity="1" fill="#353564" fill-opacity="1"></use><g><use xlink:href="#bwAFhWrsK" opacity="1" fill-opacity="0" stroke="#cccccc" stroke-width="0.21" stroke-opacity="1"></use></g></g><g><use xlink:href="#dPewDEcO6" opacity="1" fill="#afafde" fill-opacity="1"></use><g><use xlink:href="#dPewDEcO6" opacity="1" fill-opacity="0" stroke="#cccccc" stroke-width="0.21" stroke-opacity="1"></use></g></g><g><use xlink:href="#b7YvfE0V" opacity="1" fill="#f7f7f4" fill-opacity="1"></use><g><use xlink:href="#b7YvfE0V" opacity="1" fill-opacity="0" stroke="#cccccc" stroke-width="0.21" stroke-opacity="1"></use></g></g><g><use xlink:href="#dikXtVIEK" opacity="1" fill="#ffd242" fill-opacity="1"></use><g><use xlink:href="#dikXtVIEK" opacity="1" fill-opacity="0" stroke="#cccccc" stroke-width="0.21" stroke-opacity="1"></use></g></g><g><use xlink:href="#esoV5AcQs" opacity="1" fill="#efeeea" fill-opacity="1"></use><g><use xlink:href="#esoV5AcQs" opacity="1" fill-opacity="0" stroke="#cccccc" stroke-width="0.21" stroke-opacity="1"></use></g></g><g><use xlink:href="#d1mHqH49yK" opacity="1" fill="#e9e9ff" fill-opacity="1"></use><g><use xlink:href="#d1mHqH49yK" opacity="1" fill-opacity="0" stroke="#cccccc" stroke-width="0.21" stroke-opacity="1"></use></g></g><g><use xlink:href="#bf7rBjNQ1" opacity="1" fill="#353564" fill-opacity="1"></use><g><use xlink:href="#bf7rBjNQ1" opacity="1" fill-opacity="0" stroke="#cccccc" stroke-width="0.21" stroke-opacity="1"></use></g></g><g><use xlink:href="#c2ItBDIaa" opacity="1" fill="#afafde" fill-opacity="1"></use><g><use xlink:href="#c2ItBDIaa" opacity="1" fill-opacity="0" stroke="#cccccc" stroke-width="0.21" stroke-opacity="1"></use></g></g><g><use xlink:href="#d48J8gZlvM" opacity="1" fill="#f7f7f4" fill-opacity="1"></use><g><use xlink:href="#d48J8gZlvM" opacity="1" fill-opacity="0" stroke="#cccccc" stroke-width="0.21" stroke-opacity="1"></use></g></g><g><use xlink:href="#c53RwsxMoE" opacity="1" fill="#3775a9" fill-opacity="1"></use><g><use xlink:href="#c53RwsxMoE" opacity="1" fill-opacity="0" stroke="#cccccc" stroke-width="0.21" stroke-opacity="1"></use></g></g><g><use xlink:href="#d7w3yIw8t" opacity="1" fill="#efeeea" fill-opacity="1"></use><g><use xlink:href="#d7w3yIw8t" opacity="1" fill-opacity="0" stroke="#cccccc" stroke-width="0.21" stroke-opacity="1"></use></g></g><g><use xlink:href="#b4H7jgBSY" opacity="1" fill="#e9e9ff" fill-opacity="1"></use><g><use xlink:href="#b4H7jgBSY" opacity="1" fill-opacity="0" stroke="#cccccc" stroke-width="0.21" stroke-opacity="1"></use></g></g><g><use xlink:href="#e6Y9Q7mBP" opacity="1" fill="#353564" fill-opacity="1"></use><g><use xlink:href="#e6Y9Q7mBP" opacity="1" fill-opacity="0" stroke="#cccccc" stroke-width="0.21" stroke-opacity="1"></use></g></g><g><use xlink:href="#a2ZVv3kjNR" opacity="1" fill="#afafde" fill-opacity="1"></use><g><use xlink:href="#a2ZVv3kjNR" opacity="1" fill-opacity="0" stroke="#cccccc" stroke-width="0.21" stroke-opacity="1"></use></g></g><g><use xlink:href="#a3HG6zs2Lt" opacity="1" fill="#2f6491" fill-opacity="1"></use><g><use xlink:href="#a3HG6zs2Lt" opacity="1" fill-opacity="0" stroke="#cccccc" stroke-width="0.21" stroke-opacity="1"></use></g></g><g><use xlink:href="#e22pEPYkkv" opacity="1" fill="#3775a9" fill-opacity="1"></use><g><use xlink:href="#e22pEPYkkv" opacity="1" fill-opacity="0" stroke="#cccccc" stroke-width="0.21" stroke-opacity="1"></use></g></g><g><use xlink:href="#auJ5dS584" opacity="1" fill="#efeeea" fill-opacity="1"></use><g><use xlink:href="#auJ5dS584" opacity="1" fill-opacity="0" stroke="#cccccc" stroke-width="0.21" stroke-opacity="1"></use></g></g><g><use xlink:href="#a1ejc7xntC" opacity="1" fill="#e9e9ff" fill-opacity="1"></use><g><use xlink:href="#a1ejc7xntC" opacity="1" fill-opacity="0" stroke="#cccccc" stroke-width="0.21" stroke-opacity="1"></use></g></g><g><use xlink:href="#d14MPCzVG8" opacity="1" fill="#353564" fill-opacity="1"></use><g><use xlink:href="#d14MPCzVG8" opacity="1" fill-opacity="0" stroke="#cccccc" stroke-width="0.21" stroke-opacity="1"></use></g></g><g><use xlink:href="#b8yTirvEbp" opacity="1" fill="#afafde" fill-opacity="1"></use><g><use xlink:href="#b8yTirvEbp" opacity="1" fill-opacity="0" stroke="#cccccc" stroke-width="0.21" stroke-opacity="1"></use></g></g><g><use xlink:href="#dqUSoVy6m" opacity="1" fill="#f7f7f4" fill-opacity="1"></use><g><use xlink:href="#dqUSoVy6m" opacity="1" fill-opacity="0" stroke="#cccccc" stroke-width="0.21" stroke-opacity="1"></use></g></g><g><use xlink:href="#ccCu9HRRc" opacity="1" fill="#ffd242" fill-opacity="1"></use><g><use xlink:href="#ccCu9HRRc" opacity="1" fill-opacity="0" stroke="#cccccc" stroke-width="0.21" stroke-opacity="1"></use></g></g><g><use xlink:href="#d1oMLvqlMa" opacity="1" fill="#efeeea" fill-opacity="1"></use><g><use xlink:href="#d1oMLvqlMa" opacity="1" fill-opacity="0" stroke="#cccccc" stroke-width="0.21" stroke-opacity="1"></use></g></g><g><use xlink:href="#f4B4wdzVPW" opacity="1" fill="#e9e9ff" fill-opacity="1"></use><g><use xlink:href="#f4B4wdzVPW" opacity="1" fill-opacity="0" stroke="#cccccc" stroke-width="0.21" stroke-opacity="1"></use></g></g><g><use xlink:href="#b2NTKIqTr3" opacity="1" fill="#353564" fill-opacity="1"></use><g><use xlink:href="#b2NTKIqTr3" opacity="1" fill-opacity="0" stroke="#cccccc" stroke-width="0.21" stroke-opacity="1"></use></g></g><g><use xlink:href="#a2hJfL7XQL" opacity="1" fill="#afafde" fill-opacity="1"></use><g><use xlink:href="#a2hJfL7XQL" opacity="1" fill-opacity="0" stroke="#cccccc" stroke-width="0.21" stroke-opacity="1"></use></g></g><g><use xlink:href="#h15owyxgf" opacity="1" fill="#f7f7f4" fill-opacity="1"></use><g><use xlink:href="#h15owyxgf" opacity="1" fill-opacity="0" stroke="#cccccc" stroke-width="0.21" stroke-opacity="1"></use></g></g><g><use xlink:href="#c1ATowBNXf" opacity="1" fill="#3775a9" fill-opacity="1"></use><g><use xlink:href="#c1ATowBNXf" opacity="1" fill-opacity="0" stroke="#cccccc" stroke-width="0.21" stroke-opacity="1"></use></g></g><g><use xlink:href="#a1gHhHTPqM" opacity="1" fill="#efeeea" fill-opacity="1"></use><g><use xlink:href="#a1gHhHTPqM" opacity="1" fill-opacity="0" stroke="#cccccc" stroke-width="0.21" stroke-opacity="1"></use></g></g><g><use xlink:href="#b4aHxqsfsD" opacity="1" fill="#e9e9ff" fill-opacity="1"></use><g><use xlink:href="#b4aHxqsfsD" opacity="1" fill-opacity="0" stroke="#cccccc" stroke-width="0.21" stroke-opacity="1"></use></g></g><g><use xlink:href="#b1ex74BiZA" opacity="1" fill="#353564" fill-opacity="1"></use><g><use xlink:href="#b1ex74BiZA" opacity="1" fill-opacity="0" stroke="#cccccc" stroke-width="0.21" stroke-opacity="1"></use></g></g><g><use xlink:href="#c1oGzjgTL" opacity="1" fill="#afafde" fill-opacity="1"></use><g><use xlink:href="#c1oGzjgTL" opacity="1" fill-opacity="0" stroke="#cccccc" stroke-width="0.21" stroke-opacity="1"></use></g></g><g><use xlink:href="#b2FscCMfyX" opacity="1" fill="#f7f7f4" fill-opacity="1"></use><g><use xlink:href="#b2FscCMfyX" opacity="1" fill-opacity="0" stroke="#cccccc" stroke-width="0.21" stroke-opacity="1"></use></g></g><g><use xlink:href="#b9vjuOPjUZ" opacity="1" fill="#3775a9" fill-opacity="1"></use><g><use xlink:href="#b9vjuOPjUZ" opacity="1" fill-opacity="0" stroke="#cccccc" stroke-width="0.21" stroke-opacity="1"></use></g></g><g><use xlink:href="#d2WoiSbuhJ" opacity="1" fill="#2f6491" fill-opacity="1"></use><g><use xlink:href="#d2WoiSbuhJ" opacity="1" fill-opacity="0" stroke="#cccccc" stroke-width="0.21" stroke-opacity="1"></use></g></g><g><use xlink:href="#a11kw2OA4H" opacity="1" fill="#e9e9ff" fill-opacity="1"></use><g><use xlink:href="#a11kw2OA4H" opacity="1" fill-opacity="0" stroke="#cccccc" stroke-width="0.21" stroke-opacity="1"></use></g></g><g><use xlink:href="#b22pLkpQtR" opacity="1" fill="#353564" fill-opacity="1"></use><g><use xlink:href="#b22pLkpQtR" opacity="1" fill-opacity="0" stroke="#cccccc" stroke-width="0.21" stroke-opacity="1"></use></g></g><g><use xlink:href="#c5RnTWJxG" opacity="1" fill="#afafde" fill-opacity="1"></use><g><use xlink:href="#c5RnTWJxG" opacity="1" fill-opacity="0" stroke="#cccccc" stroke-width="0.21" stroke-opacity="1"></use></g></g><g><use xlink:href="#c56Vq8Huz" opacity="1" fill="#2f6491" fill-opacity="1"></use><g><use xlink:href="#c56Vq8Huz" opacity="1" fill-opacity="0" stroke="#cccccc" stroke-width="0.21" stroke-opacity="1"></use></g></g><g><use xlink:href="#ce9QXfSrY" opacity="1" fill="#3775a9" fill-opacity="1"></use><g><use xlink:href="#ce9QXfSrY" opacity="1" fill-opacity="0" stroke="#cccccc" stroke-width="0.21" stroke-opacity="1"></use></g></g><g><use xlink:href="#a54V86mD43" opacity="1" fill="#2f6491" fill-opacity="1"></use><g><use xlink:href="#a54V86mD43" opacity="1" fill-opacity="0" stroke="#cccccc" stroke-width="0.21" stroke-opacity="1"></use></g></g><g><use xlink:href="#b1RuyC6vLx" opacity="1" fill="#e9e9ff" fill-opacity="1"></use><g><use xlink:href="#b1RuyC6vLx" opacity="1" fill-opacity="0" stroke="#cccccc" stroke-width="0.33" stroke-opacity="1"></use></g></g><g><use xlink:href="#bcuw8VVPF" opacity="1" fill="#353564" fill-opacity="1"></use><g><use xlink:href="#bcuw8VVPF" opacity="1" fill-opacity="0" stroke="#cccccc" stroke-width="0.33" stroke-opacity="1"></use></g></g><g><use xlink:href="#aetKWKV2q" opacity="1" fill="#afafde" fill-opacity="1"></use><g><use xlink:href="#aetKWKV2q" opacity="1" fill-opacity="0" stroke="#cccccc" stroke-width="0.33" stroke-opacity="1"></use></g></g><g><use xlink:href="#a1pYIkYwuv" opacity="1" fill="#2f6491" fill-opacity="1"></use><g><use xlink:href="#a1pYIkYwuv" opacity="1" fill-opacity="0" stroke="#cccccc" stroke-width="0.33" stroke-opacity="1"></use></g></g><g><use xlink:href="#bbxNFSKOD" opacity="1" fill="#3775a9" fill-opacity="1"></use><g><use xlink:href="#bbxNFSKOD" opacity="1" fill-opacity="0" stroke="#cccccc" stroke-width="0.33" stroke-opacity="1"></use></g></g><g><use xlink:href="#e11qnXfNpR" opacity="1" fill="#2f6491" fill-opacity="1"></use><g><use xlink:href="#e11qnXfNpR" opacity="1" fill-opacity="0" stroke="#cccccc" stroke-width="0.33" stroke-opacity="1"></use></g></g><g><use xlink:href="#az5mZ47KE" opacity="1" fill="#ffffff" fill-opacity="1"></use><g><use xlink:href="#az5mZ47KE" opacity="1" fill-opacity="0" stroke="#000000" stroke-width="1" stroke-opacity="0"></use></g></g><g><use xlink:href="#fIfAW7hR" opacity="1" fill="#ffffff" fill-opacity="1"></use><g><use xlink:href="#fIfAW7hR" opacity="1" fill-opacity="0" stroke="#000000" stroke-width="1" stroke-opacity="0"></use></g></g><g><use xlink:href="#b1hUvhjwtK" opacity="1" fill="#ffffff" fill-opacity="1"></use><g><use xlink:href="#b1hUvhjwtK" opacity="1" fill-opacity="0" stroke="#000000" stroke-width="1" stroke-opacity="0"></use></g></g><g><use xlink:href="#a22JjeVdyP" opacity="1" fill="#ffffff" fill-opacity="1"></use><g><use xlink:href="#a22JjeVdyP" opacity="1" fill-opacity="0" stroke="#000000" stroke-width="1" stroke-opacity="0"></use></g></g></g></svg>